<svg width="138" height="72" viewBox="0 0 138 72" fill="none" xmlns="http://www.w3.org/2000/svg">
<path fill-rule="evenodd" clip-rule="evenodd" d="M137.474 10.1848C137.146 9.97315 136.733 9.94117 136.376 10.0999L136.375 10.1004L136.37 10.1026L136.35 10.1117L136.266 10.1487C136.191 10.1815 136.08 10.2305 135.932 10.2945C135.637 10.4227 135.2 10.6112 134.634 10.8513C133.501 11.3315 131.85 12.0183 129.784 12.8419C125.651 14.4895 119.861 16.6835 113.235 18.8684C99.9464 23.25 83.4264 27.5495 70.1665 27.4136C57.4062 27.2829 41.5523 22.9823 28.8092 18.6684C22.4546 16.5172 16.9052 14.3738 12.9448 12.7683C10.965 11.9657 9.3832 11.298 8.29759 10.8314C7.75481 10.5981 7.33613 10.4151 7.05381 10.2908C6.91265 10.2286 6.80558 10.1811 6.73415 10.1493L6.65391 10.1135L6.62828 10.102C6.27139 9.94131 5.857 9.97199 5.5279 10.1834C5.1988 10.3949 5 10.7582 5 11.1482V70.8518C5 71.2211 5.17836 71.5678 5.4793 71.7836C5.78025 71.9993 6.16729 72.0577 6.51901 71.9407L6.5451 71.932L6.62658 71.9051C6.69903 71.8813 6.80747 71.8457 6.95033 71.7991C7.23606 71.706 7.65946 71.5691 8.20796 71.3946C9.30501 71.0456 10.9023 70.5463 12.8994 69.9461C16.8941 68.7457 22.4856 67.143 28.8709 65.5342C41.6672 62.3101 57.5553 59.0871 70.1638 58.9876C83.2814 58.8842 99.8372 62.1066 113.177 65.3819C119.833 67.0163 125.664 68.6574 129.83 69.8898C131.913 70.5059 133.578 71.0197 134.723 71.3791C135.295 71.5588 135.736 71.6999 136.035 71.7958C136.184 71.8438 136.297 71.8805 136.372 71.9052L136.457 71.9329L136.485 71.9419C136.836 72.0577 137.222 71.9984 137.522 71.7825C137.822 71.5666 138 71.2204 138 70.8518V11.1482C138 10.7591 137.802 10.3965 137.474 10.1848ZM6.15318 70.8518L6.51901 71.9407C6.51882 71.9408 6.51878 71.9408 6.15318 70.8518ZM6.62828 10.102L6.15318 11.1481C6.62657 10.1057 6.62811 10.1019 6.62828 10.102Z" fill="#F2D74C"/>
<path fill-rule="evenodd" clip-rule="evenodd" d="M130.298 0.104668C130.652 -0.0616611 131.062 -0.0281415 131.387 0.193723C131.712 0.415587 131.908 0.79561 131.908 1.20337V63.7786C131.908 64.1649 131.732 64.5277 131.435 64.754C131.137 64.9802 130.754 65.0424 130.406 64.9211L130.765 63.7786C130.406 64.9211 130.406 64.9212 130.406 64.9211L130.404 64.9206L130.378 64.9116L130.294 64.8825C130.219 64.8567 130.107 64.8183 129.959 64.768C129.663 64.6674 129.225 64.5195 128.658 64.3312C127.523 63.9545 125.871 63.416 123.805 62.7703C119.673 61.4786 113.891 59.7585 107.289 58.0456C94.0589 54.6127 77.6389 51.2353 64.6289 51.3437C52.1239 51.4479 36.3663 54.826 23.675 58.2052C17.3421 59.8913 11.7965 61.5711 7.83456 62.8293C5.85386 63.4583 4.26967 63.9817 3.18163 64.3475C2.63763 64.5304 2.21771 64.6739 1.93433 64.7714C1.79264 64.8202 1.68508 64.8575 1.61323 64.8825L1.53241 64.9107L1.50654 64.9198C1.50636 64.9199 1.50631 64.9199 1.14371 63.7786L1.50654 64.9198C1.15771 65.0425 0.773845 64.9812 0.475369 64.7551C0.176893 64.529 0 64.1656 0 63.7786V1.20337C0 0.794654 0.197172 0.413875 0.523568 0.192259C0.849964 -0.0293573 1.26096 -0.0615114 1.61492 0.106877L1.14371 1.20337C1.61492 0.106877 1.61475 0.106801 1.61492 0.106877L1.64034 0.11893L1.71992 0.156476C1.79076 0.189822 1.89695 0.23962 2.03695 0.304779C2.31695 0.435101 2.7322 0.626862 3.27053 0.871365C4.34723 1.36039 5.91601 2.06028 7.87958 2.90146C11.8074 4.58414 17.3114 6.83063 23.6138 9.0853C36.2523 13.6067 51.976 18.1142 64.6316 18.2512C77.7827 18.3935 94.1671 13.8872 107.346 9.29496C113.918 7.00496 119.661 4.70547 123.76 2.97862C125.809 2.11535 127.446 1.39559 128.57 0.892229C129.132 0.640558 129.565 0.443013 129.858 0.308708C130.004 0.241556 130.115 0.190217 130.189 0.15583L130.272 0.117106L130.292 0.107548L130.297 0.105266L130.298 0.104668C130.298 0.104588 130.298 0.104668 130.765 1.20337L130.298 0.104668ZM129.621 3.03707C129.57 3.0598 129.519 3.08301 129.466 3.10668C128.328 3.61611 126.676 4.34254 124.61 5.21289C120.479 6.95328 114.692 9.27077 108.066 11.5797C94.8483 16.1852 78.1603 20.8045 64.6081 20.6578C51.5671 20.5166 35.5528 15.8985 22.8774 11.3639C16.5228 9.09059 10.9758 6.82646 7.01699 5.13052C5.03722 4.28239 3.45371 3.57597 2.36396 3.08102C2.33817 3.0693 2.31266 3.05771 2.28743 3.04623V62.1216C2.35151 62.1 2.41751 62.0778 2.48541 62.0549C3.58397 61.6856 5.17997 61.1583 7.17361 60.5252C11.1604 59.2592 16.7401 57.569 23.1138 55.872C35.8357 52.4847 51.8161 49.0437 64.6108 48.9371C77.9225 48.8261 94.5749 52.2678 107.837 55.7088C114.481 57.4329 120.299 59.1635 124.457 60.4632C126.536 61.1132 128.2 61.6556 129.346 62.0359C129.441 62.0675 129.533 62.098 129.621 62.1273V3.03707Z" fill="#1E2CBB"/>
</svg>
