<svg width="317" height="427" viewBox="0 0 317 427" fill="none" xmlns="http://www.w3.org/2000/svg">
<path d="M316.48 60.1506C264.028 40.821 227.191 32.1811 202.442 29.2415C190.068 27.7718 180.702 27.7254 173.909 28.4864C167.144 29.2443 162.845 30.812 160.697 32.6535L160.595 32.7412L105.478 162.528C97.7929 163.878 85.8246 166.152 74.4891 168.66C63.0259 171.197 52.1365 173.987 47.0124 176.317C41.7714 178.7 38.7169 183.16 37.0252 187.709C35.3354 192.252 34.9834 196.935 35.1796 199.879L35.1884 200.01L59.2541 242.423L19 333.305L79.1201 418.883L149.835 427L202.625 356.979L241.408 377.516H292.368L292.534 377.357C302.369 367.988 305.723 351.872 305.992 335.694C306.261 319.494 303.438 303.064 300.747 292.864L278.933 176.879L317 60.3421L316.48 60.1506Z" fill="#86AC48"/>
<path fill-rule="evenodd" clip-rule="evenodd" d="M146.537 3.10383C147.378 1.11082 149.393 -0.130951 151.556 0.0110101C184.214 2.1547 250.89 15.3456 283.558 24.932C284.597 25.2369 285.511 25.8647 286.167 26.7241C288.532 29.8212 289.053 34.1593 288.996 38.2356C288.936 42.5714 288.184 47.827 286.918 53.751C284.381 65.6279 279.611 80.9418 273.27 98.4299C267.072 115.521 259.32 134.833 250.558 155.267C258.706 186.525 267.162 223.981 271.597 258.34C274.319 279.424 275.554 299.548 274.204 316.451C272.907 332.691 269.154 346.964 261.027 355.947C260.456 356.906 259.64 357.608 258.854 358.041C257.703 358.676 256.541 358.823 255.877 358.873C254.442 358.982 252.777 358.791 251.19 358.519C247.88 357.953 243.372 356.758 238.159 355.095C227.674 351.749 213.711 346.31 199.529 339.476C189.135 334.468 178.515 328.659 169.014 322.312C164.591 330.322 160.246 338.006 156.021 345.278C145.916 362.671 136.458 377.779 128.237 389.377C124.128 395.174 120.286 400.155 116.79 404.129C113.348 408.042 110.026 411.23 106.938 413.201C106.12 413.723 105.17 414 104.199 414C98.2238 414 87.542 411.658 75.599 407.391C63.4932 403.066 49.5156 396.558 36.9075 387.807C24.3301 379.077 12.8261 367.913 6.10495 354.178C-0.697504 340.276 -2.44117 324.041 4.0947 305.783C10.8215 286.991 26.5209 253.195 45.3391 214.213C45.1723 214.057 45.0057 213.9 44.8393 213.743L44.2159 214.039L43.4423 212.417C31.9012 201.393 21.2878 189.442 14.6651 178.185C13.8889 176.865 13.7511 175.267 14.29 173.835C14.8289 172.402 15.987 171.289 17.4417 170.805C22.6108 169.086 29.3047 166.792 36.9424 164.174L36.9445 164.174L36.9488 164.172C48.5503 160.196 62.3289 155.474 76.2495 150.886C77.1439 149.065 78.0385 147.242 78.933 145.42L78.9332 145.42L78.9332 145.42C105.883 90.5219 132.685 35.927 146.537 3.10383ZM60.4492 206.33C59.5531 208.176 58.6627 210.011 57.7786 211.836C59.4401 213.322 61.1151 214.789 62.7957 216.232C63.2604 216.631 63.7251 217.028 64.1895 217.423L78.7957 210.55L70.2653 201.669L60.4492 206.33ZM67.4007 220.117C70.9027 223.021 74.3657 225.777 77.7102 228.344L90.1838 222.406L81.578 213.446L67.4007 220.117ZM81.1278 230.931C85.0166 233.836 88.697 236.449 92.0334 238.695L101.461 234.146L92.9619 225.298L81.1278 230.931ZM95.7405 241.132C97.8691 242.494 99.8046 243.665 101.501 244.618C102.815 244.422 104.953 243.932 108.009 243.018C108.501 242.871 109.01 242.715 109.534 242.551L104.234 237.033L95.7405 241.132ZM112.423 241.614C115.482 240.593 118.95 239.347 122.751 237.91C125.22 236.976 127.818 235.966 130.523 234.888L123.525 227.725L107.842 235.292L113.201 240.871L112.423 241.614ZM133.213 232.193C133.035 229.3 132.849 226.337 132.654 223.32L127.143 225.979L133.213 232.193ZM131.669 208.645C131.918 212.219 132.158 215.752 132.387 219.224L124.337 223.107L115.839 214.408L130.432 207.462L131.669 208.645ZM142.189 213.434C141.94 209.75 141.679 206.01 141.407 202.237L153.368 196.544L162.229 204.824L142.926 214.138L142.189 213.434ZM142.565 219.062C142.802 222.671 143.028 226.213 143.243 229.662C145.6 228.667 148.001 227.64 150.436 226.586L142.565 219.062ZM154.221 224.937C157.256 223.606 160.331 222.238 163.426 220.843C166.988 219.237 170.566 217.599 174.127 215.943L165.211 207.611L145.863 216.946L154.221 224.937ZM177.845 214.205C183.977 211.323 190.028 208.402 195.829 205.518L186.227 197.469L168.889 205.836L177.845 214.205ZM199.54 203.66C205.554 200.63 211.25 197.658 216.43 194.834L207.123 187.387L189.989 195.654L199.54 203.66ZM220.037 192.844C221.281 192.149 222.489 191.465 223.658 190.793C225.268 187.283 226.859 183.786 228.429 180.306C227.666 179.636 226.856 178.96 226.001 178.278L210.925 185.552L220.037 192.844ZM222.592 175.697C221.196 174.691 219.711 173.674 218.142 172.652C216.115 171.331 213.988 170.023 211.788 168.735L198.069 175.265L207.631 182.916L222.592 175.697ZM207.756 166.44C203.715 164.2 199.493 162.031 195.24 159.965L184.981 164.792L194.767 172.622L207.756 166.44ZM190.8 157.848C190.135 157.537 189.47 157.229 188.807 156.923C184.587 154.98 180.432 153.163 176.494 151.503L171.381 153.909L181.672 162.144L190.8 157.848ZM171.745 149.531C168 148.001 164.537 146.64 161.514 145.483C161.083 145.318 160.661 145.157 160.248 145L168.071 151.26L171.745 149.531ZM149.698 141.434C146.506 141.638 141.937 142.427 136.254 143.722C136.501 145.952 136.743 148.22 136.981 150.519L152.89 143.988L149.698 141.434ZM126.422 147.336C126.677 149.701 126.927 152.107 127.173 154.546L118.023 158.302L110.029 150.832C115.414 149.219 120.571 147.738 125.364 146.45L126.422 147.336ZM105.816 152.107C100.765 153.649 95.5518 155.291 90.2805 156.987C88.5069 157.557 86.729 158.133 84.9508 158.712L94.5866 167.924L114.148 159.893L105.816 152.107ZM82.3596 161.503C81.6819 162.884 81.0049 164.264 80.3287 165.642C78.9733 168.406 77.6214 171.163 76.2747 173.911L77.3423 175.004L90.7314 169.507L82.3596 161.503ZM67.0333 192.806C68.9433 188.892 70.8722 184.946 72.815 180.976L76.4105 179.5L86.4461 189.772L71.1129 197.053L67.0333 192.806ZM65.2551 196.453L67.4863 198.776L63.1121 200.853C63.8233 199.391 64.5377 197.924 65.2551 196.453ZM66.9594 169.826C65.0211 173.781 63.0917 177.722 61.1762 181.641L57.6852 183.074L46.6423 171.577C51.8812 169.784 57.4397 167.887 63.1731 165.95L66.9594 169.826ZM68.7381 166.196C69.1524 165.351 69.567 164.506 69.9818 163.66C69.0442 163.974 68.1096 164.287 67.1787 164.6L68.7381 166.196ZM42.6689 172.938C41.9303 173.191 41.1993 173.442 40.4764 173.69L40.473 173.691L40.4546 173.697C35.4857 175.4 30.8967 176.973 26.8335 178.351C29.793 182.633 33.3279 187.039 37.2556 191.461L53.8978 184.629L42.6689 172.938ZM39.9744 194.458L56.7315 187.579L57.7553 188.645C55.1271 194.031 52.5316 199.363 49.9822 204.619C46.4933 201.27 43.1295 197.866 39.9744 194.458ZM127.564 158.499C127.87 161.642 128.169 164.833 128.46 168.055L121.082 161.16L127.564 158.499ZM138.41 165.216C138.148 162.351 137.88 159.513 137.605 156.711L144.393 162.401L138.41 165.216ZM139.564 178.432C139.308 175.357 139.045 172.292 138.774 169.25L147.606 165.095L157.599 173.471L142.073 180.776L139.564 178.432ZM140.17 185.877L141.356 185.319L150.38 193.751L141.11 198.164C140.983 196.442 140.854 194.715 140.722 192.985C140.543 190.62 140.358 188.249 140.17 185.877ZM130.335 190.505C130.419 191.588 130.502 192.671 130.584 193.753C130.816 196.799 131.041 199.837 131.258 202.854L131.168 202.897L122.206 194.33L130.335 190.505ZM128.973 173.862C129.333 178.031 129.681 182.237 130.016 186.449L119.258 191.511L110.098 182.753L112.573 181.578L112.58 181.575L128.973 173.862ZM53.1878 221.336C35.0077 259.055 20.0775 291.293 13.6695 309.194C8.06589 324.849 9.62529 338.25 15.2414 349.727C20.9387 361.371 30.9687 371.328 42.7136 379.48C54.4278 387.61 67.5607 393.744 79.0268 397.841C89.41 401.551 97.9774 403.431 102.678 403.792C104.401 402.461 106.563 400.376 109.148 397.438C112.33 393.821 115.948 389.147 119.936 383.52C127.911 372.269 137.198 357.45 147.225 340.191C151.595 332.669 156.098 324.697 160.685 316.372C160.183 315.988 159.685 315.602 159.193 315.215C147.811 306.255 138.352 295.776 136.07 284.391C136.019 284.135 135.987 283.876 135.976 283.615L141.055 283.397C135.976 283.615 135.976 283.615 135.976 283.614L135.976 283.608L135.975 283.585L135.97 283.49L135.962 283.29L135.954 283.115C135.939 282.783 135.917 282.289 135.888 281.644C135.829 280.353 135.741 278.457 135.625 276.037C135.392 271.197 135.045 264.263 134.589 255.895C134.394 252.323 134.179 248.49 133.945 244.447C131.312 245.494 128.775 246.48 126.355 247.395C120.469 249.621 115.216 251.453 110.928 252.735C106.845 253.956 103.053 254.867 100.386 254.867C99.5486 254.867 98.724 254.66 97.9857 254.266C88.6361 249.268 72.2758 237.757 56.1632 223.92C55.1721 223.069 54.1796 222.207 53.1878 221.336ZM143.893 240.393C144.208 245.736 144.491 250.755 144.741 255.344C145.198 263.737 145.546 270.692 145.78 275.55C145.897 277.98 145.985 279.885 146.044 281.183C146.074 281.833 146.096 282.33 146.111 282.666L146.115 282.76C147.787 290.304 154.646 298.714 165.491 307.251C165.533 307.284 165.574 307.317 165.616 307.35C180.613 279.68 196.315 248.69 211.096 217.661C212.894 213.888 214.677 210.116 216.443 206.35C201.886 214.082 184.417 222.511 167.613 230.087C159.468 233.759 151.431 237.253 143.893 240.393ZM231.562 197.933C227.881 205.927 224.11 213.973 220.279 222.016C205.226 253.615 189.205 285.212 173.91 313.372C183.06 319.556 193.522 325.317 203.951 330.342C217.728 336.98 231.248 342.24 241.256 345.432C246.289 347.038 250.28 348.072 252.908 348.521C253.281 348.585 253.611 348.634 253.901 348.671C259.428 342.205 262.842 330.999 264.069 315.644C265.34 299.738 264.193 280.395 261.513 259.636C257.73 230.331 250.95 198.611 243.944 170.474C242.828 173.005 241.699 175.548 240.559 178.101C242.218 180.033 243.617 182.013 244.683 184.033C245.863 186.269 245.212 189.031 243.157 190.509C240.066 192.733 236.132 195.237 231.562 197.933ZM232.744 170.668C235.17 165.206 237.539 159.798 239.839 154.466C238.296 148.613 236.769 142.992 235.286 137.667C234.853 136.11 233.398 133.786 230.321 130.822C227.338 127.949 223.24 124.862 218.26 121.712C208.311 115.42 195.331 109.182 181.982 104.12C168.621 99.0528 155.142 95.258 144.218 93.7226C138.741 92.9528 134.121 92.7826 130.573 93.2041C129.311 93.354 128.277 93.5676 127.435 93.8137C127.574 94.1733 127.708 94.5349 127.836 94.896C128.681 97.2798 129.465 100.163 130.201 103.405C131.675 109.896 133.039 118.2 134.298 127.593C134.559 129.542 134.817 131.543 135.07 133.588C141.61 132.135 147.219 131.237 151.222 131.237C151.781 131.237 152.336 131.329 152.865 131.51L151.222 136.309C152.865 131.51 152.866 131.51 152.867 131.51L152.871 131.512L152.884 131.516L152.93 131.532C152.969 131.545 153.027 131.565 153.102 131.591C153.253 131.643 153.474 131.72 153.762 131.82C154.336 132.021 155.175 132.317 156.245 132.701C158.384 133.469 161.445 134.591 165.156 136.012C172.572 138.852 182.61 142.897 193.067 147.713C203.503 152.518 214.474 158.144 223.703 164.159C226.878 166.229 229.941 168.404 232.744 170.668ZM125.125 136.016C124.993 136.051 124.861 136.086 124.728 136.121C114.32 138.86 102.17 142.535 89.7181 146.512C98.5899 128.44 107.438 110.405 115.796 93.1927C115.979 93.9022 116.318 94.5813 116.815 95.1766C117.011 95.4113 117.545 96.2877 118.251 98.2787C118.913 100.148 119.596 102.612 120.285 105.646C121.661 111.706 122.978 119.668 124.221 128.938C124.527 131.227 124.829 133.59 125.125 136.016ZM118.906 86.7785C121.86 84.6066 125.628 83.5761 129.37 83.1313C132.065 82.8112 135.025 82.7615 138.169 82.9309L138.058 82.8792L143.676 70.943L129.059 65.6788C125.798 72.5058 122.402 79.5591 118.906 86.7785ZM145.636 83.6778C144.441 83.5098 143.26 83.3645 142.099 83.2441L147.277 72.2402L159.559 76.6633L154.764 85.3174C151.608 84.6401 148.552 84.0877 145.636 83.6778ZM173.722 90.4692C168.596 88.8158 163.52 87.3718 158.632 86.198L163.191 77.9713L177.591 83.1576L173.722 90.4692ZM185.595 94.6381C182.87 93.6046 180.127 92.6173 177.389 91.6853L181.212 84.4618L197.089 90.18L193.244 97.6787C190.712 96.6255 188.157 95.6098 185.595 94.6381ZM211.951 106.407C207.14 103.886 202.022 101.454 196.761 99.1725L200.704 91.482L216.308 97.1015L211.951 106.407ZM223.704 113.144C221.074 111.481 218.263 109.831 215.314 108.211L219.908 98.3984L236.532 104.385L230.793 117.995C228.599 116.357 226.22 114.736 223.704 113.144ZM237.383 123.525C236.311 122.492 235.147 121.46 233.902 120.432L240.123 105.679L257.354 111.885C253.963 120.626 250.253 129.804 246.284 139.298C245.88 137.829 245.48 136.379 245.082 134.952C243.927 130.803 240.934 126.945 237.383 123.525ZM263.709 94.9789C262.146 99.2902 260.481 103.748 258.724 108.334L241.603 102.168L247.377 88.4747L264.108 93.8753C263.976 94.242 263.843 94.6099 263.709 94.9789ZM270.67 74.6279C269.107 79.5441 267.341 84.7777 265.389 90.2908L248.861 84.9556L255.053 70.271L270.67 74.6279ZM276.432 54.0758C275.273 59.0967 273.718 64.765 271.805 70.9948L256.543 66.7368L263.134 51.1063L276.432 54.0758ZM278.83 38.0949C278.786 41.2279 278.265 45.3269 277.241 50.3584L264.636 47.5436L271.179 32.0247C273.757 32.7058 276.205 33.3763 278.503 34.0316C278.691 34.8457 278.857 36.1383 278.83 38.0949ZM253.079 27.5541C258.134 28.7302 262.958 29.9045 267.452 31.0553L260.855 46.6995L245.7 43.3152L253.079 27.5541ZM235.488 23.6498C240.196 24.6479 244.815 25.6625 249.281 26.6796L241.89 42.4645L227.489 39.2489L235.488 23.6498ZM215.526 19.6214C220.919 20.6553 226.314 21.7339 231.622 22.8379L223.647 38.3908L207.501 34.7855L215.526 19.6214ZM197.357 16.3108C202.045 17.1183 206.816 17.9786 211.608 18.878L203.645 33.9245L189.364 30.7356L197.357 16.3108ZM175.242 12.8229C180.992 13.6329 187.09 14.5814 193.376 15.6343L185.488 29.8699L168.956 26.1784L175.242 12.8229ZM154.476 10.4024C159.47 10.8206 165.144 11.4617 171.285 12.2802L165.144 25.3273L149.464 21.8258C151.26 17.8072 152.936 13.9912 154.476 10.4024ZM143.402 35.1724C144.956 31.7976 146.448 28.5261 147.873 25.3686L163.484 28.8547L158.525 39.3915L143.402 35.1724ZM130.706 62.2275C134.631 53.9863 138.346 46.0977 141.786 38.6714L156.882 42.8829L151.823 53.6325L137.193 48.9102L136.02 52.5295L150.189 57.1033L145.303 67.485L130.706 62.2275ZM165.059 74.5999L179.388 79.7608L185.369 68.4591L171.027 63.8294L165.059 74.5999ZM172.906 60.4379L187.176 65.0443L193.498 53.0983L179.186 49.1053L172.906 60.4379ZM175.412 48.0526L169.21 59.245L155.479 54.8128L160.605 43.9217L175.412 48.0526ZM181.081 45.6842L195.32 49.6566L201.8 37.4106L187.442 34.2045L181.081 45.6842ZM183.565 33.3388L177.308 44.6316L162.248 40.4302L167.296 29.7058L183.565 33.3388ZM205.656 38.2716L199.077 50.7047L215.047 55.1602L221.853 41.8884L205.656 38.2716ZM225.696 42.7465L218.794 56.2055L233.531 60.3168L240.237 45.9936L225.696 42.7465ZM244.047 46.8443L237.253 61.3552L252.842 65.7043L259.353 50.2621L244.047 46.8443ZM251.352 69.2385L235.617 64.8488L229.178 78.6019L245.22 83.7804L251.352 69.2385ZM243.736 87.2995L227.551 82.0751L221.529 94.9378L238.012 100.874L243.736 87.2995ZM217.928 93.6409L223.896 80.8951L208.656 75.9758L202.455 88.0682L217.928 93.6409ZM198.84 86.7663L204.981 74.7897L189.052 69.6478L183.01 81.065L198.84 86.7663ZM190.859 66.233L206.74 71.3594L213.275 58.6158L197.255 54.1464L190.859 66.233ZM217.022 59.661L210.415 72.5455L225.522 77.4219L231.895 63.8104L217.022 59.661ZM153.846 58.2836L167.331 62.6366L161.427 73.2919L148.905 68.7821L153.846 58.2836ZM139.715 153.511L156.287 146.707L164.234 153.066L148.189 160.615L139.715 153.511ZM151.403 163.308L167.543 155.714L177.834 163.949L161.395 171.685L151.403 163.308ZM164.608 174.378L181.144 166.598L190.946 174.441L174.195 182.415L164.608 174.378ZM177.402 185.103L194.248 177.084L203.829 184.751L186.79 192.973L177.402 185.103ZM173.622 186.903L183.028 194.788L165.907 203.049L157.063 194.785L173.622 186.903ZM112.205 216.138L120.719 224.854L105.069 232.405L96.5858 223.573L112.205 216.138ZM109.394 213.261L93.8076 220.681L85.2151 211.735L100.758 204.422L109.394 213.261ZM97.9432 201.54L82.4328 208.839L73.8919 199.947L89.2575 192.65L97.9432 201.54ZM90.083 188.045L80.2106 177.94L93.7414 172.385L103.472 181.687L90.083 188.045ZM107.154 179.939L97.5967 170.802L117.207 162.751L126.061 171.026L110.947 178.137L110.944 178.139L110.941 178.14L107.154 179.939ZM145.066 183.574L160.812 176.164L170.415 184.214L154.075 191.993L145.066 183.574ZM118.513 196.067L127.489 204.648L113.028 211.532L104.406 202.705L118.513 196.067ZM115.565 193.249L101.591 199.824L92.8945 190.923L106.416 184.502L115.565 193.249Z" fill="#1E2CBB"/>
</svg>
