<svg width="139" height="71" viewBox="0 0 134 44" fill="none" xmlns="http://www.w3.org/2000/svg">
<path d="M132.89 25.9061C133.334 24.8804 133.333 24.8801 133.333 24.8801L133.304 24.8672L133.218 24.8299C133.143 24.7971 133.031 24.7488 132.885 24.686C132.593 24.5604 132.163 24.3767 131.606 24.1433C130.493 23.6765 128.877 23.0108 126.858 22.2129C122.821 20.6174 117.172 18.4922 110.72 16.373C97.8502 12.1459 81.6587 7.89832 68.6964 8.00186C56.2341 8.1014 40.6937 12.3491 28.3481 16.5261C22.1584 18.6204 16.7401 20.7081 12.8689 22.2723C10.933 23.0545 9.38303 23.7062 8.31597 24.1628C7.78242 24.3911 7.36953 24.5707 7.08941 24.6935C6.94934 24.7549 6.84247 24.8021 6.77029 24.8341L6.68823 24.8705L6.66001 24.8831C6.66001 24.8831 6.65935 24.8834 7.10983 25.9061L6.65935 24.8834C6.25964 25.0624 6.00147 25.4614 6.00001 25.9024C5.99855 26.3433 6.25408 26.7441 6.65259 26.9257L7.10983 25.9061C6.65259 26.9257 6.65325 26.926 6.65325 26.926L6.65476 26.9267L6.68125 26.9388L6.76255 26.9755C6.83405 27.0078 6.93991 27.0553 7.07866 27.1172C7.35614 27.241 7.76517 27.422 8.29392 27.6521C9.35138 28.1124 10.888 28.7693 12.8091 29.558C16.6506 31.135 22.0333 33.2405 28.1996 35.3544C40.4994 39.5712 56.0392 43.8656 68.6938 43.9968C81.8444 44.1333 98.0379 39.8378 110.864 35.5551C117.294 33.408 122.909 31.253 126.918 29.6346C128.922 28.8252 130.526 28.1497 131.63 27.676C132.182 27.4391 132.609 27.2527 132.898 27.1252C132.992 27.0838 133.072 27.0486 133.136 27.0199C133.171 27.0044 133.202 26.9908 133.228 26.9791C133.265 26.9625 133.294 26.9498 133.313 26.9412L133.341 26.9288L133.342 26.9281C133.342 26.9281 133.343 26.9278 132.89 25.9061Z" fill="#F2D74C"/>
<path d="M132.89 25.9061L133.334 24.8804C133.737 25.0575 133.998 25.4578 134 25.9011C134.002 26.3443 133.744 26.747 133.343 26.9278L132.89 25.9061Z" fill="#F2D74C"/>
<path fill-rule="evenodd" clip-rule="evenodd" d="M131.221 18.1315C131.222 18.1317 131.222 18.1318 130.765 19.2336C131.231 20.331 131.231 20.3312 131.23 20.3314L131.229 20.3321L131.2 20.3455C131.181 20.3547 131.151 20.3683 131.113 20.3862C131.036 20.4219 130.922 20.4746 130.773 20.543C130.474 20.68 130.034 20.8803 129.466 21.1347C128.328 21.6435 126.676 22.3691 124.61 23.2385C120.479 24.9769 114.692 27.2917 108.066 29.5979C94.8483 34.1981 78.1603 38.8121 64.6081 38.6655C51.5671 38.5245 35.5528 33.9118 22.8774 29.3824C16.5228 27.1117 10.9758 24.8502 7.01699 23.1562C5.03722 22.3091 3.45371 21.6035 2.36396 21.1091C1.81906 20.8619 1.39755 20.6675 1.11159 20.5345C0.968614 20.4681 0.85952 20.4169 0.785834 20.3823L0.70205 20.3428L0.67475 20.3299L0.6732 20.3292C0.672785 20.329 0.672514 20.3288 1.14371 19.2336C0.679482 18.1351 0.679751 18.135 0.680166 18.1348L0.709244 18.1213L0.793807 18.0821C0.86819 18.0477 0.978331 17.997 1.12267 17.9311C1.41135 17.7992 1.83685 17.6063 2.38669 17.3611C3.48633 16.8706 5.08359 16.1706 7.07864 15.3304C11.068 13.6502 16.6518 11.4078 23.0305 9.15822C35.753 4.67152 51.768 0.108913 64.6108 0.00199264C77.9689 -0.109218 94.6548 4.45331 107.917 8.99373C114.566 11.2701 120.388 13.5528 124.548 15.2666C126.629 16.1236 128.295 16.8387 129.441 17.3401C130.015 17.5908 130.459 17.7882 130.76 17.9231C130.91 17.9905 131.025 18.0424 131.103 18.0776L131.191 18.1177L131.221 18.1315ZM4.02655 19.243C5.0468 18.7928 6.36421 18.2211 7.92953 17.5618C11.8888 15.8943 17.4304 13.6688 23.7582 11.4373C36.4489 6.96181 52.172 2.50958 64.6289 2.40587C77.5925 2.29795 93.979 6.75026 107.209 11.2795C113.806 13.5379 119.584 15.8037 123.714 17.5047C125.376 18.1895 126.77 18.7826 127.842 19.2464C126.781 19.716 125.403 20.3153 123.76 21.0068C119.661 22.7317 113.918 25.0285 107.346 27.3158C94.1671 31.9028 77.7827 36.4039 64.6316 36.2617C51.976 36.1249 36.2523 31.6226 23.6138 27.1064C17.3114 24.8544 11.8074 22.6105 7.87958 20.9297C6.33526 20.2689 5.03513 19.6954 4.02655 19.243ZM130.765 19.2336L131.231 20.331C131.645 20.1368 131.91 19.7043 131.908 19.2282C131.906 18.7521 131.637 18.3221 131.222 18.1318L130.765 19.2336ZM1.14371 19.2336L0.672514 20.3288C0.261835 20.1337 -0.00149816 19.7033 6.41344e-06 19.2296C0.00151108 18.7559 0.267572 18.3274 0.679482 18.1351L1.14371 19.2336Z" fill="#1E2CBB"/>
</svg>
