<svg width="157" height="69" viewBox="0 0 157 69" fill="none" xmlns="http://www.w3.org/2000/svg">
<path d="M36.5 69C53.3447 69 67 55.3447 67 38.5C67 21.6553 53.3447 8 36.5 8C19.6553 8 6 21.6553 6 38.5C6 55.3447 19.6553 69 36.5 69Z" fill="#F2D74C"/>
<path d="M82.5 69C99.3447 69 113 55.3447 113 38.5C113 21.6553 99.3447 8 82.5 8C65.6553 8 52 21.6553 52 38.5C52 55.3447 65.6553 69 82.5 69Z" fill="#F2D74C"/>
<path d="M126.5 69C143.345 69 157 55.3447 157 38.5C157 21.6553 143.345 8 126.5 8C109.655 8 96 21.6553 96 38.5C96 55.3447 109.655 69 126.5 69Z" fill="#F2D74C"/>
<path fill-rule="evenodd" clip-rule="evenodd" d="M31.0066 62.4826C39.1287 62.4826 46.4606 58.9375 51.67 53.2435C47.2064 47.6148 44.5223 40.3814 44.5223 32.491C44.5223 24.6006 47.2064 17.3671 51.67 11.7385C46.4606 6.0444 39.1287 2.49931 31.0066 2.49931C15.1994 2.49931 2.38512 15.927 2.38512 32.491C2.38512 49.0549 15.1994 62.4826 31.0066 62.4826ZM31.0066 64.9819C39.7412 64.9819 47.6322 61.1974 53.2678 55.1078C58.9033 61.1974 66.7943 64.9819 75.5289 64.9819C84.6823 64.9819 92.9094 60.8257 98.5851 54.216C104.261 60.8257 112.488 64.9819 121.641 64.9819C138.766 64.9819 152.648 50.4352 152.648 32.491C152.648 14.5467 138.766 0 121.641 0C112.488 0 104.261 4.15621 98.5851 10.7659C92.9094 4.15621 84.6823 0 75.5289 0C66.7943 0 58.9033 3.78453 53.2678 9.8741C47.6322 3.78453 39.7412 0 31.0066 0C13.8821 0 0 14.5467 0 32.491C0 50.4352 13.8821 64.9819 31.0066 64.9819ZM97.0422 12.7089C91.7966 6.44999 84.103 2.49931 75.5289 2.49931C67.4068 2.49931 60.0749 6.0444 54.8655 11.7385C59.3291 17.3671 62.0132 24.6006 62.0132 32.491C62.0132 40.3813 59.3291 47.6148 54.8655 53.2435C60.0749 58.9375 67.4068 62.4826 75.5289 62.4826C84.103 62.4826 91.7966 58.532 97.0422 52.273C93.0237 46.7943 90.6347 39.935 90.6347 32.491C90.6347 25.0469 93.0237 18.1876 97.0422 12.7089ZM98.5851 50.265C95.087 45.2908 93.0198 39.1439 93.0198 32.491C93.0198 25.8381 95.087 19.6911 98.5851 14.717C102.083 19.6911 104.15 25.8381 104.15 32.491C104.15 39.1439 102.083 45.2908 98.5851 50.265ZM100.128 52.273C104.146 46.7943 106.536 39.935 106.536 32.491C106.536 25.0469 104.146 18.1876 100.128 12.7089C105.374 6.44999 113.067 2.49931 121.641 2.49931C137.448 2.49931 150.263 15.927 150.263 32.491C150.263 49.0549 137.448 62.4826 121.641 62.4826C113.067 62.4826 105.374 58.532 100.128 52.273ZM59.6281 32.491C59.6281 25.3486 57.2455 18.7894 53.2678 13.6384C49.29 18.7894 46.9074 25.3486 46.9074 32.491C46.9074 39.6333 49.29 46.1925 53.2678 51.3435C57.2455 46.1925 59.6281 39.6333 59.6281 32.491Z" fill="#1E2CBB"/>
</svg>
