<svg width="240" height="80" viewBox="0 0 240 80" fill="none" xmlns="http://www.w3.org/2000/svg">
<path d="M213 54C227.912 54 240 41.9117 240 27C240 12.0883 227.912 0 213 0C198.088 0 186 12.0883 186 27C186 41.9117 198.088 54 213 54Z" fill="#F2D74C"/>
<path d="M27 54C41.9117 54 54 41.9117 54 27C54 12.0883 41.9117 0 27 0C12.0883 0 0 12.0883 0 27C0 41.9117 12.0883 54 27 54Z" fill="#F2D74C"/>
<path fill-rule="evenodd" clip-rule="evenodd" d="M50.04 15.002C50.9154 14.957 51.6593 15.6745 51.7017 16.6046C51.99 22.9348 50.5058 32.4201 44.8333 39.5872C71.7111 64.5561 95.4597 76.6773 119.405 76.6096C143.368 76.5419 167.896 64.2691 196.331 39.5437C190.687 32.3817 189.209 22.922 189.497 16.6046C189.539 15.6745 190.283 14.957 191.158 15.002C192.034 15.047 192.709 15.8375 192.667 16.7675C192.386 22.9325 193.981 32.1702 199.761 38.5599C204.324 43.6043 211.687 47.0911 223.428 45.6405C224.299 45.533 225.086 46.1956 225.188 47.1205C225.289 48.0454 224.665 48.8824 223.795 48.99C212.03 50.4434 203.911 47.2709 198.526 41.9923C169.778 67.0294 144.494 79.9108 119.414 79.9817C94.3355 80.0525 69.8316 67.3154 42.6377 42.0267C37.2517 47.2847 29.1425 50.4403 17.4037 48.9899C16.5332 48.8824 15.9095 48.0454 16.0108 47.1205C16.112 46.1956 16.8997 45.5329 17.7702 45.6405C29.5114 47.0911 36.8743 43.6043 41.4373 38.5599C47.2171 32.1702 48.8125 22.9325 48.5317 16.7675C48.4894 15.8375 49.1647 15.047 50.04 15.002Z" fill="#1E2CBB"/>
</svg>
