<svg width="405" height="110" viewBox="0 0 443 102" fill="none" xmlns="http://www.w3.org/2000/svg">
<path d="M11 23C15.6139 21.2424 59.4094 5.36565 63 13.4445C74.083 38.3811 47.4378 52.8114 31.2222 67C15.8211 80.476 36.2046 67.9854 42.1111 63.8889C58.2683 52.6831 75.9033 45.1362 92.5556 35C120.251 18.1418 99.1523 57.774 93.4444 68.5556C87.258 80.2412 99.2743 74.8149 105 72.1111C130.361 60.1349 158.166 50.4112 180.333 32.7778C181.787 31.6218 189.661 19.5244 190.778 25.6667C192.586 35.6137 188.16 45.9161 183 54.1111C174.284 67.9542 199.376 38.0187 211.444 35.8889C248.978 29.2654 206.136 84.8517 197.222 91.8889C171.375 112.295 187.002 66.762 195.222 57C208.755 40.9303 260.196 37.6731 262.778 64.7778C263.375 71.0472 259 79.4873 259 69.2223C259 55.487 267.097 43.6183 279.444 37.4445C297.267 28.5332 333.924 26.6668 325 55.2223C324.256 57.6016 318.887 68.7012 321.667 64.3334C333.336 45.9956 348.779 30.9705 366.111 18.1112C393.188 -1.97784 382.638 29.0023 375.889 47C375.476 48.1011 433.652 14.9142 435 23C437.019 35.1129 433.719 44.4387 439 55" stroke="#F2D74C" stroke-width="8" stroke-linecap="round" stroke-linejoin="round"/>
<path d="M1 13C5.6139 11.2424 49.4094 -4.63435 53 3.44448C64.083 28.3811 37.4378 42.8114 21.2222 57C5.82115 70.476 26.2046 57.9854 32.1111 53.8889C48.2683 42.6831 65.9033 35.1362 82.5556 25C110.251 8.14182 89.1523 47.774 83.4444 58.5556C77.258 70.2412 89.2743 64.8149 95 62.1111C120.361 50.1349 148.166 40.4112 170.333 22.7778C171.787 21.6218 179.661 9.52435 180.778 15.6667C182.586 25.6137 178.16 35.9161 173 44.1111C164.284 57.9542 189.376 28.0187 201.444 25.8889C238.978 19.2654 196.136 74.8517 187.222 81.8889C161.375 102.295 177.002 56.762 185.222 47C198.755 30.9303 250.196 27.6731 252.778 54.7778C253.375 61.0472 249 69.4873 249 59.2223C249 45.487 257.097 33.6183 269.444 27.4445C287.267 18.5332 323.924 16.6668 315 45.2223C314.256 47.6016 308.887 58.7012 311.667 54.3334C323.336 35.9956 338.779 20.9705 356.111 8.11115C383.188 -11.9778 372.638 19.0023 365.889 37C365.476 38.1011 423.652 4.91421 425 13C427.019 25.1129 423.719 34.4387 429 45" stroke="#1E2CBB" stroke-width="2" stroke-linecap="round" stroke-linejoin="round"/>
</svg>
