<svg width="955" height="237" viewBox="0 0 955 237" fill="none" xmlns="http://www.w3.org/2000/svg">
<path d="M50.2189 36C44.0916 44.8626 34.5108 58.5038 28.4411 68C26.3712 71.2383 19.2982 77.7143 23.1077 78.2222C38.3795 80.2584 79.7023 44.7275 92.8855 36.8889C107.74 28.0567 157.374 -7.39452 132.886 32C126.295 42.6023 66.6743 112.427 76.8855 125.556C83.5884 134.174 119.658 116.111 123.552 114.667C176.614 94.9896 228.607 72.7255 281.33 52.2222C295.115 46.8614 287.115 56.0037 281.774 61.7778C262.788 82.3039 238.7 104.504 212.886 116C179.868 130.703 121.868 127.703 132.886 75.5555C141.326 35.6017 235.232 54.8301 253.997 74.6667C268.055 89.5285 260.958 113.847 247.108 125.778C222.045 147.366 195.181 148.056 163.997 143.556C159.005 142.835 57.662 118.026 67.9966 104C75.1983 94.2263 103.793 104.757 110.886 106.667C138.464 114.092 159.315 126.43 181.774 143.556C215.206 169.047 242.564 150.24 280.219 133.333C339.425 106.751 398.978 75.4423 449.774 34.6667C459.694 26.7042 477.102 3.13939 471.33 29.3333C464.769 59.1114 457.216 88.6614 450.663 118.444C450.092 121.042 435.234 177.444 435.108 177.333C429.507 172.432 455.018 90.4895 444.886 100.444C423.8 121.16 399.807 135.236 372.886 147.556C331.843 166.338 280.65 191.946 233.997 183.333C194.068 175.962 214.405 134.391 245.774 133.111C273.553 131.977 364.1 150.389 366.663 187.556C369.809 233.173 291.17 235.854 265.108 217.556C203.633 174.392 332.25 147.654 353.774 144.444C401.341 137.353 484.738 130.633 493.33 191.556C500.178 240.117 522.818 161.681 525.997 149.333C528.116 141.1 533.952 78.3071 543.997 75.1111C556.077 71.2675 601.572 120.133 612.441 127.111C632.434 139.946 654.307 150.529 675.774 160.667C677.808 161.627 683.411 164.574 682.219 162.667C677.517 155.143 662.772 147.061 656.441 142.222C626.121 119.049 596.25 95.0892 568.885 68.4444C559.755 59.5539 556.879 58.6353 571.108 63.5555C601.465 74.0531 631.169 86.35 660.441 99.5555C693.331 114.393 734.414 128.399 762.663 151.778C785.993 171.085 729.158 171.895 716.885 153.778C684.132 105.428 782.762 97.3845 804.885 97.7778C833.549 98.2873 882.306 102.427 902.885 126.222C917.502 143.123 891.053 162.443 877.774 167.111C844.009 178.982 783.108 176.998 783.108 129.778C783.108 84.3661 824.466 61.1658 865.33 66.6667C881.19 68.8017 886.371 75.7696 891.997 90C895.511 98.8884 892.349 124.536 899.108 117.778C908.336 108.549 914.063 87.6049 922.219 76.4444C929.594 66.3522 937.393 56.8257 946.219 48" stroke="#F2D74C" stroke-width="16" stroke-linecap="round" stroke-linejoin="round"/>
<path d="M30.2189 25C24.0916 33.8626 14.5108 47.5038 8.44108 57C6.37123 60.2383 -0.701837 66.7143 3.10774 67.2222C18.3795 69.2584 59.7023 33.7275 72.8855 25.8889C87.7396 17.0567 137.374 -18.3945 112.886 21C106.295 31.6023 46.6743 101.427 56.8855 114.556C63.5884 123.174 99.6578 105.111 103.552 103.667C156.614 83.9896 208.607 61.7255 261.33 41.2222C275.115 35.8614 267.115 45.0037 261.774 50.7778C242.788 71.3039 218.7 93.5044 192.886 105C159.868 119.703 101.868 116.703 112.886 64.5555C121.326 24.6017 215.232 43.8301 233.997 63.6667C248.055 78.5285 240.958 102.847 227.108 114.778C202.045 136.366 175.181 137.056 143.997 132.556C139.005 131.835 37.662 107.026 47.9966 93C55.1983 83.2263 83.7931 93.7572 90.8855 95.6667C118.464 103.092 139.315 115.43 161.774 132.556C195.206 158.047 222.564 139.24 260.219 122.333C319.425 95.7508 378.978 64.4423 429.774 23.6667C439.694 15.7042 457.102 -7.86061 451.33 18.3333C444.769 48.1114 437.216 77.6614 430.663 107.444C430.092 110.042 415.234 166.444 415.108 166.333C409.507 161.432 435.018 79.4895 424.886 89.4444C403.8 110.16 379.807 124.236 352.886 136.556C311.843 155.338 260.65 180.946 213.997 172.333C174.068 164.962 194.405 123.391 225.774 122.111C253.553 120.977 344.1 139.389 346.663 176.556C349.809 222.173 271.17 224.854 245.108 206.556C183.633 163.392 312.25 136.654 333.774 133.444C381.341 126.353 464.738 119.633 473.33 180.556C480.178 229.117 502.818 150.681 505.997 138.333C508.116 130.1 513.952 67.3071 523.997 64.1111C536.077 60.2675 581.572 109.133 592.441 116.111C612.434 128.946 634.307 139.529 655.774 149.667C657.808 150.627 663.411 153.574 662.219 151.667C657.517 144.143 642.772 136.061 636.441 131.222C606.121 108.049 576.25 84.0892 548.885 57.4444C539.755 48.5539 536.879 47.6353 551.108 52.5555C581.465 63.0531 611.169 75.35 640.441 88.5555C673.331 103.393 714.414 117.399 742.663 140.778C765.993 160.085 709.158 160.895 696.885 142.778C664.132 94.4276 762.762 86.3845 784.885 86.7778C813.549 87.2873 862.306 91.4271 882.885 115.222C897.502 132.123 871.053 151.443 857.774 156.111C824.009 167.982 763.108 165.998 763.108 118.778C763.108 73.3661 804.466 50.1658 845.33 55.6667C861.19 57.8017 866.371 64.7696 871.997 79C875.511 87.8884 872.349 113.536 879.108 106.778C888.336 97.5491 894.063 76.6049 902.219 65.4444C909.594 55.3522 917.393 45.8257 926.219 37" stroke="#1E2CBB" stroke-width="4" stroke-linecap="round" stroke-linejoin="round"/>
</svg>
