<svg width="427" height="124" viewBox="0 0 427 135" fill="none" xmlns="http://www.w3.org/2000/svg">
<path d="M416 22.3545C413.876 34.2712 400.9 136.136 369.778 125.466C350.764 118.947 350.6 58.2297 375.111 63.2434C387.076 65.6907 397.824 79.3012 398.222 91.2434C398.9 111.59 381.844 111.01 365.778 109.466C352.907 108.228 315.118 102.337 313.778 84.5767C312.175 63.3373 344.123 58.3698 358.667 56.1323C400.345 49.7203 415.914 95.345 376.889 112.577C344.938 126.685 293.002 111.557 296.889 70.3545C300.133 35.9687 231.694 98.4657 222.667 108.577C213.856 118.444 203.758 133.042 224.889 129.466C246.779 125.761 276.295 112.549 281.333 88.799C291.22 42.1915 177.899 85.5284 166.222 94.1323C157.806 100.334 148.016 115.397 162.222 120.132C179.506 125.894 204.637 113.666 218.444 104.132C228.102 97.4639 242.542 80.6404 229.333 70.5767C212.231 57.5464 182.526 65.3011 164.222 71.0212C143.781 77.409 125.265 88.0045 106.444 97.9101C95.5375 103.651 100 80.5199 100 74.3545C100 32.3154 121.316 86.5653 119.333 82.799C109.241 63.6233 97.275 45.1502 88.6667 25.2434C88.5338 24.9361 82.5318 3.97133 80 13.4656C71.1059 46.8186 51.1738 57.2491 16.8889 54.1323C6.72336 53.2081 4 26.3545 4 26.3545" stroke="#F2D74C" stroke-width="8" stroke-linecap="round" stroke-linejoin="round"/>
<path d="M426 12.3545C423.876 24.2712 410.9 126.136 379.778 115.466C360.764 108.947 360.6 48.2297 385.111 53.2434C397.076 55.6907 407.824 69.3012 408.222 81.2434C408.9 101.59 391.844 101.01 375.778 99.4656C362.907 98.2281 325.118 92.3366 323.778 74.5767C322.175 53.3373 354.123 48.3698 368.667 46.1323C410.345 39.7203 425.914 85.345 386.889 102.577C354.938 116.685 303.002 101.557 306.889 60.3545C310.133 25.9687 241.694 88.4657 232.667 98.5767C223.856 108.444 213.758 123.042 234.889 119.466C256.779 115.761 286.295 102.549 291.333 78.799C301.22 32.1915 187.899 75.5284 176.222 84.1323C167.806 90.3339 158.016 105.397 172.222 110.132C189.506 115.894 214.637 103.666 228.444 94.1323C238.102 87.4639 252.542 70.6404 239.333 60.5767C222.231 47.5464 192.526 55.3011 174.222 61.0212C153.781 67.409 135.265 78.0045 116.444 87.9101C105.537 93.6506 110 70.5199 110 64.3545C110 22.3154 131.316 76.5653 129.333 72.799C119.241 53.6233 107.275 35.1502 98.6667 15.2434C98.5338 14.9361 92.5318 -6.02867 90 3.46562C81.1059 36.8186 61.1738 47.2491 26.8889 44.1323C16.7234 43.2081 14 16.3545 14 16.3545" stroke="#1E2CBB" stroke-width="2" stroke-linecap="round" stroke-linejoin="round"/>
</svg>
