<svg width="299" height="104" viewBox="0 0 299 104" fill="none" xmlns="http://www.w3.org/2000/svg">
<path d="M2.14723 96.2694C7.11935 97.676 11.9919 98.323 17.172 98.4874C38.351 99.1594 59.7961 96.7295 80.4514 92.2085C105.531 86.7191 130.456 78.5301 153.497 67.152C164.41 61.7625 171.561 57.4237 181.577 50.6458C189.883 45.0243 199.323 38.8258 204.909 30.1577C204.909 30.1577 214.918 17.9907 207.515 7.42552C203.833 2.17085 183.285 2.80271 183.285 2.80271C166.446 4.56521 156.291 9.1367 142.785 16.7741C132.862 22.3858 122.42 30.4995 117.699 41.2875C111.448 55.5734 120.174 71.5343 130.484 81.4242C147.871 98.1038 172.912 105.926 196.366 98.1964C210.974 93.3824 225.326 85.7668 237.925 77.0182C254.454 65.541 284.916 36.4088 296.473 19.7496" stroke="#E2582D" stroke-width="4" stroke-linecap="round" stroke-linejoin="round" stroke-dasharray="4 8"/>
</svg>
