<svg width="955" height="237" viewBox="0 0 955 237" fill="none" xmlns="http://www.w3.org/2000/svg">
<path d="M51 36C44.8727 44.8626 35.2919 58.5038 29.2222 68C27.1524 71.2383 20.0793 77.7143 23.8889 78.2222C39.1606 80.2584 80.4835 44.7275 93.6666 36.8889C108.521 28.0567 158.155 -7.39452 133.667 32C127.076 42.6023 67.4555 112.427 77.6666 125.556C84.3696 134.174 120.439 116.111 124.333 114.667C177.395 94.9896 229.388 72.7255 282.111 52.2222C295.896 46.8614 287.897 56.0037 282.556 61.7778C263.569 82.3039 239.481 104.504 213.667 116C180.649 130.703 122.65 127.703 133.667 75.5555C142.108 35.6017 236.013 54.8301 254.778 74.6667C268.836 89.5285 261.739 113.847 247.889 125.778C222.826 147.366 195.962 148.056 164.778 143.556C159.786 142.835 58.4431 118.026 68.7778 104C75.9794 94.2263 104.574 104.757 111.667 106.667C139.245 114.092 160.096 126.43 182.556 143.556C215.987 169.047 243.345 150.24 281 133.333C340.206 106.751 399.759 75.4423 450.556 34.6667C460.475 26.7042 477.883 3.13939 472.111 29.3333C465.55 59.1114 457.997 88.6614 451.444 118.444C450.873 121.042 436.015 177.444 435.889 177.333C430.288 172.432 455.799 90.4895 445.667 100.444C424.581 121.16 400.588 135.236 373.667 147.556C332.624 166.338 281.431 191.946 234.778 183.333C194.849 175.962 215.186 134.391 246.556 133.111C274.335 131.977 364.881 150.389 367.444 187.556C370.59 233.173 291.951 235.854 265.889 217.556C204.414 174.392 333.031 147.654 354.556 144.444C402.123 137.353 485.519 130.633 494.111 191.556C500.96 240.117 523.599 161.681 526.778 149.333C528.897 141.1 534.733 78.3071 544.778 75.1111C556.858 71.2675 602.353 120.133 613.222 127.111C633.215 139.946 655.088 150.529 676.556 160.667C678.589 161.627 684.192 164.574 683 162.667C678.298 155.143 663.554 147.061 657.222 142.222C626.902 119.049 597.032 95.0892 569.667 68.4444C560.536 59.5539 557.66 58.6353 571.889 63.5555C602.247 74.0531 631.95 86.35 661.222 99.5555C694.112 114.393 735.195 128.399 763.444 151.778C786.774 171.085 729.939 171.895 717.667 153.778C684.913 105.428 783.543 97.3845 805.667 97.7778C834.33 98.2873 883.087 102.427 903.667 126.222C918.283 143.123 891.834 162.443 878.556 167.111C844.791 178.982 783.889 176.998 783.889 129.778C783.889 84.3661 825.248 61.1658 866.111 66.6667C881.971 68.8017 887.152 75.7696 892.778 90C896.292 98.8884 893.13 124.536 899.889 117.778C909.118 108.549 914.844 87.6049 923 76.4444C930.375 66.3522 938.174 56.8257 947 48" stroke="#F2D74C" stroke-width="16" stroke-linecap="round" stroke-linejoin="round"/>
<path d="M31 25C24.8727 33.8626 15.2919 47.5038 9.22221 57C7.15236 60.2383 0.0792909 66.7143 3.88887 67.2222C19.1606 69.2584 60.4835 33.7275 73.6666 25.8889C88.5207 17.0567 138.155 -18.3945 113.667 21C107.076 31.6023 47.4555 101.427 57.6666 114.556C64.3696 123.174 100.439 105.111 104.333 103.667C157.395 83.9896 209.388 61.7255 262.111 41.2222C275.896 35.8614 267.897 45.0037 262.556 50.7778C243.569 71.3039 219.481 93.5044 193.667 105C160.649 119.703 102.65 116.703 113.667 64.5555C122.108 24.6017 216.013 43.8301 234.778 63.6667C248.836 78.5285 241.739 102.847 227.889 114.778C202.826 136.366 175.962 137.056 144.778 132.556C139.786 131.835 38.4431 107.026 48.7778 93C55.9794 83.2263 84.5742 93.7572 91.6666 95.6667C119.245 103.092 140.096 115.43 162.556 132.556C195.987 158.047 223.345 139.24 261 122.333C320.206 95.7508 379.759 64.4423 430.556 23.6667C440.475 15.7042 457.883 -7.86061 452.111 18.3333C445.55 48.1114 437.997 77.6614 431.444 107.444C430.873 110.042 416.015 166.444 415.889 166.333C410.288 161.432 435.799 79.4895 425.667 89.4444C404.581 110.16 380.588 124.236 353.667 136.556C312.624 155.338 261.431 180.946 214.778 172.333C174.849 164.962 195.186 123.391 226.556 122.111C254.335 120.977 344.881 139.389 347.444 176.556C350.59 222.173 271.951 224.854 245.889 206.556C184.414 163.392 313.031 136.654 334.556 133.444C382.123 126.353 465.519 119.633 474.111 180.556C480.96 229.117 503.599 150.681 506.778 138.333C508.897 130.1 514.733 67.3071 524.778 64.1111C536.858 60.2675 582.353 109.133 593.222 116.111C613.215 128.946 635.088 139.529 656.556 149.667C658.589 150.627 664.192 153.574 663 151.667C658.298 144.143 643.554 136.061 637.222 131.222C606.902 108.049 577.032 84.0892 549.667 57.4444C540.536 48.5539 537.66 47.6353 551.889 52.5555C582.247 63.0531 611.95 75.35 641.222 88.5555C674.112 103.393 715.195 117.399 743.444 140.778C766.774 160.085 709.939 160.895 697.667 142.778C664.913 94.4276 763.543 86.3845 785.667 86.7778C814.33 87.2873 863.087 91.4271 883.667 115.222C898.283 132.123 871.834 151.443 858.556 156.111C824.791 167.982 763.889 165.998 763.889 118.778C763.889 73.3661 805.248 50.1658 846.111 55.6667C861.971 57.8017 867.152 64.7696 872.778 79C876.292 87.8884 873.13 113.536 879.889 106.778C889.118 97.5491 894.844 76.6049 903 65.4444C910.375 55.3522 918.174 45.8257 927 37" stroke="#1E2CBB" stroke-width="4" stroke-linecap="round" stroke-linejoin="round"/>
</svg>
