<svg width="422" height="105" viewBox="0 0 422 135" fill="none" xmlns="http://www.w3.org/2000/svg">
<path d="M6 22.3545C8.12376 34.2712 21.0998 136.136 52.2222 125.466C71.2361 118.947 71.4002 58.2297 46.8889 63.2434C34.9243 65.6907 24.1759 79.3012 23.7778 91.2434C23.0996 111.59 40.1564 111.01 56.2222 109.466C69.0928 108.228 106.882 102.337 108.222 84.5767C109.825 63.3373 77.8772 58.3698 63.3333 56.1323C21.6555 49.7203 6.08643 95.345 45.1111 112.577C77.0621 126.685 128.998 111.557 125.111 70.3545C121.867 35.9687 190.306 98.4657 199.333 108.577C208.144 118.444 218.242 133.042 197.111 129.466C175.221 125.761 145.705 112.549 140.667 88.799C130.78 42.1915 244.101 85.5284 255.778 94.1323C264.194 100.334 273.984 115.397 259.778 120.132C242.494 125.894 217.363 113.666 203.556 104.132C193.898 97.4639 179.458 80.6404 192.667 70.5767C209.769 57.5464 239.474 65.3011 257.778 71.0212C278.219 77.409 296.735 88.0045 315.556 97.9101C326.463 103.651 322 80.5199 322 74.3545C322 32.3154 300.684 86.5653 302.667 82.799C312.759 63.6233 324.725 45.1502 333.333 25.2434C333.466 24.9361 339.468 3.97133 342 13.4656C350.894 46.8186 370.826 57.2491 405.111 54.1323C415.277 53.2081 418 26.3545 418 26.3545" stroke="#F2D74C" stroke-width="8" stroke-linecap="round" stroke-linejoin="round"/>
<path d="M1 12.3545C3.12376 24.2712 16.0998 126.136 47.2222 115.466C66.2361 108.947 66.4002 48.2297 41.8889 53.2434C29.9243 55.6907 19.1759 69.3012 18.7778 81.2434C18.0996 101.59 35.1564 101.01 51.2222 99.4656C64.0928 98.2281 101.882 92.3366 103.222 74.5767C104.825 53.3373 72.8772 48.3698 58.3333 46.1323C16.6555 39.7203 1.08643 85.345 40.1111 102.577C72.0621 116.685 123.998 101.557 120.111 60.3545C116.867 25.9687 185.306 88.4657 194.333 98.5767C203.144 108.444 213.242 123.042 192.111 119.466C170.221 115.761 140.705 102.549 135.667 78.799C125.78 32.1915 239.101 75.5284 250.778 84.1323C259.194 90.3339 268.984 105.397 254.778 110.132C237.494 115.894 212.363 103.666 198.556 94.1323C188.898 87.4639 174.458 70.6404 187.667 60.5767C204.769 47.5464 234.474 55.3011 252.778 61.0212C273.219 67.409 291.735 78.0045 310.556 87.9101C321.463 93.6506 317 70.5199 317 64.3545C317 22.3154 295.684 76.5653 297.667 72.799C307.759 53.6233 319.725 35.1502 328.333 15.2434C328.466 14.9361 334.468 -6.02867 337 3.46562C345.894 36.8186 365.826 47.2491 400.111 44.1323C410.277 43.2081 413 16.3545 413 16.3545" stroke="#1E2CBB" stroke-width="2" stroke-linecap="round" stroke-linejoin="round"/>
</svg>
