<svg width="423" height="108" viewBox="0 0 423 137" fill="none" xmlns="http://www.w3.org/2000/svg">
<path d="M419 24.3545C416.876 36.2712 403.9 138.136 372.778 127.466C353.764 120.947 353.6 60.2297 378.111 65.2434C390.076 67.6907 400.824 81.3012 401.222 93.2434C401.9 113.59 384.844 113.01 368.778 111.466C355.907 110.228 318.118 104.337 316.778 86.5767C315.175 65.3373 347.123 60.3698 361.667 58.1323C403.345 51.7203 418.914 97.345 379.889 114.577C347.938 128.685 296.002 113.557 299.889 72.3545C303.133 37.9687 234.694 100.466 225.667 110.577C216.856 120.444 206.758 135.042 227.889 131.466C249.779 127.761 279.295 114.549 284.333 90.799C294.22 44.1915 180.899 87.5284 169.222 96.1323C160.806 102.334 151.016 117.397 165.222 122.132C182.506 127.894 207.637 115.666 221.444 106.132C231.102 99.4639 245.542 82.6404 232.333 72.5767C215.231 59.5464 185.526 67.3011 167.222 73.0212C146.781 79.409 128.265 90.0045 109.444 99.9101C98.5375 105.651 103 82.5199 103 76.3545C103 34.3154 124.316 88.5653 122.333 84.799C112.241 65.6233 100.275 47.1502 91.6667 27.2434C91.5338 26.9361 85.5318 5.97133 83 15.4656C74.1059 48.8186 54.1738 59.2491 19.8889 56.1323C9.72336 55.2081 7 28.3545 7 28.3545" stroke="#F2D74C" stroke-width="8" stroke-linecap="round" stroke-linejoin="round"/>
<path d="M413 12.3545C410.876 24.2712 397.9 126.136 366.778 115.466C347.764 108.947 347.6 48.2297 372.111 53.2434C384.076 55.6907 394.824 69.3012 395.222 81.2434C395.9 101.59 378.844 101.01 362.778 99.4656C349.907 98.2281 312.118 92.3366 310.778 74.5767C309.175 53.3373 341.123 48.3698 355.667 46.1323C397.345 39.7203 412.914 85.345 373.889 102.577C341.938 116.685 290.002 101.557 293.889 60.3545C297.133 25.9687 228.694 88.4657 219.667 98.5767C210.856 108.444 200.758 123.042 221.889 119.466C243.779 115.761 273.295 102.549 278.333 78.799C288.22 32.1915 174.899 75.5284 163.222 84.1323C154.806 90.3339 145.016 105.397 159.222 110.132C176.506 115.894 201.637 103.666 215.444 94.1323C225.102 87.4639 239.542 70.6404 226.333 60.5767C209.231 47.5464 179.526 55.3011 161.222 61.0212C140.781 67.409 122.265 78.0045 103.444 87.9101C92.5375 93.6506 97 70.5199 97 64.3545C97 22.3154 118.316 76.5653 116.333 72.799C106.241 53.6233 94.275 35.1502 85.6667 15.2434C85.5338 14.9361 79.5318 -6.02867 77 3.46562C68.1059 36.8186 48.1738 47.2491 13.8889 44.1323C3.72336 43.2081 1 16.3545 1 16.3545" stroke="#1E2CBB" stroke-width="2" stroke-linecap="round" stroke-linejoin="round"/>
</svg>
