<svg width="441" height="109" viewBox="0 0 441 97" fill="none" xmlns="http://www.w3.org/2000/svg">
<path d="M9 18C13.6139 16.2424 57.4094 0.365654 61 8.44448C72.083 33.3811 45.4378 47.8114 29.2222 62C13.8211 75.476 34.2046 62.9854 40.1111 58.8889C56.2683 47.6831 73.9033 40.1362 90.5556 30C118.251 13.1418 97.1523 52.774 91.4444 63.5556C85.258 75.2412 97.2743 69.8149 103 67.1111C128.361 55.1349 156.166 45.4112 178.333 27.7778C179.787 26.6218 187.661 14.5244 188.778 20.6667C190.586 30.6137 186.16 40.9161 181 49.1111C172.284 62.9542 197.376 33.0187 209.444 30.8889C246.978 24.2654 204.136 79.8517 195.222 86.8889C169.375 107.295 185.002 61.762 193.222 52C206.755 35.9303 258.196 32.6731 260.778 59.7778C261.375 66.0472 257 74.4873 257 64.2223C257 50.487 265.097 38.6183 277.444 32.4445C295.267 23.5332 331.924 21.6668 323 50.2223C322.256 52.6016 316.887 63.7012 319.667 59.3334C331.336 40.9956 346.779 25.9705 364.111 13.1112C391.188 -6.97784 380.638 24.0023 373.889 42C373.476 43.1011 431.652 9.91421 433 18C435.019 30.1129 431.719 39.4387 437 50" stroke="#F2D74C" stroke-width="8" stroke-linecap="round" stroke-linejoin="round"/>
<path d="M1 13C5.6139 11.2423 49.4094 -4.63438 53 3.44445C64.083 28.3811 37.4378 42.8114 21.2222 57C5.82115 70.4759 26.2046 57.9854 32.1111 53.8889C48.2683 42.6831 65.9033 35.1362 82.5556 25C110.251 8.14179 89.1523 47.774 83.4444 58.5556C77.258 70.2411 89.2743 64.8149 95 62.1111C120.361 50.1349 148.166 40.4112 170.333 22.7778C171.787 21.6218 179.661 9.52432 180.778 15.6667C182.586 25.6136 178.16 35.9161 173 44.1111C164.284 57.9541 189.376 28.0187 201.444 25.8889C238.978 19.2654 196.136 74.8517 187.222 81.8889C161.375 102.295 177.002 56.7619 185.222 47C198.755 30.9302 250.196 27.6731 252.778 54.7778C253.375 61.0472 249 69.4872 249 59.2222C249 45.487 257.097 33.6182 269.444 27.4445C287.267 18.5331 323.924 16.6668 315 45.2222C314.256 47.6016 308.887 58.7012 311.667 54.3333C323.336 35.9955 338.779 20.9705 356.111 8.11112C383.188 -11.9779 372.638 19.0023 365.889 37C365.476 38.1011 423.652 4.91418 425 13C427.019 25.1129 423.719 34.4387 429 45" stroke="#1E2CBB" stroke-width="2" stroke-linecap="round" stroke-linejoin="round"/>
</svg>
