<svg width="436" height="104" viewBox="0 0 436 101" fill="none" xmlns="http://www.w3.org/2000/svg">
<path d="M4 22C8.6139 20.2424 52.4094 4.36565 56 12.4445C67.083 37.3811 40.4378 51.8114 24.2222 66C8.82115 79.476 29.2046 66.9854 35.1111 62.8889C51.2683 51.6831 68.9033 44.1362 85.5556 34C113.251 17.1418 92.1523 56.774 86.4444 67.5556C80.258 79.2412 92.2743 73.8149 98 71.1111C123.361 59.1349 151.166 49.4112 173.333 31.7778C174.787 30.6218 182.661 18.5244 183.778 24.6667C185.586 34.6137 181.16 44.9161 176 53.1111C167.284 66.9542 192.376 37.0187 204.444 34.8889C241.978 28.2654 199.136 83.8517 190.222 90.8889C164.375 111.295 180.002 65.762 188.222 56C201.755 39.9303 253.196 36.6731 255.778 63.7778C256.375 70.0472 252 78.4873 252 68.2223C252 54.487 260.097 42.6183 272.444 36.4445C290.267 27.5332 326.924 25.6668 318 54.2223C317.256 56.6016 311.887 67.7012 314.667 63.3334C326.336 44.9956 341.779 29.9705 359.111 17.1112C386.188 -2.97784 375.638 28.0023 368.889 46C368.476 47.1011 426.652 13.9142 428 22C430.019 34.1129 426.719 43.4387 432 54" stroke="#F2D74C" stroke-width="8" stroke-linecap="round" stroke-linejoin="round"/>
<path d="M2 13C6.6139 11.2423 50.4094 -4.63438 54 3.44445C65.083 28.3811 38.4378 42.8114 22.2222 57C6.82115 70.4759 27.2046 57.9854 33.1111 53.8889C49.2683 42.6831 66.9033 35.1362 83.5556 25C111.251 8.14179 90.1523 47.774 84.4444 58.5556C78.258 70.2411 90.2743 64.8149 96 62.1111C121.361 50.1349 149.166 40.4112 171.333 22.7778C172.787 21.6218 180.661 9.52432 181.778 15.6667C183.586 25.6136 179.16 35.9161 174 44.1111C165.284 57.9541 190.376 28.0187 202.444 25.8889C239.978 19.2654 197.136 74.8517 188.222 81.8889C162.375 102.295 178.002 56.7619 186.222 47C199.755 30.9302 251.196 27.6731 253.778 54.7778C254.375 61.0472 250 69.4872 250 59.2222C250 45.487 258.097 33.6182 270.444 27.4445C288.267 18.5331 324.924 16.6668 316 45.2222C315.256 47.6016 309.887 58.7012 312.667 54.3333C324.336 35.9955 339.779 20.9705 357.111 8.11112C384.188 -11.9779 373.638 19.0023 366.889 37C366.476 38.1011 424.652 4.91418 426 13C428.019 25.1129 424.719 34.4387 430 45" stroke="#1E2CBB" stroke-width="2" stroke-linecap="round" stroke-linejoin="round"/>
</svg>
